<svg xmlns="http://www.w3.org/2000/svg" width="900" height="480" viewBox="0 0 900 480">
<rect width="100%" height="100%" fill="white"/>
<text x="450.0" y="28" text-anchor="middle" font-size="20" font-family="sans-serif">Cumulative net ROC by month</text>
<text x="15" y="240.0" transform="rotate(-90 15 240.0)" text-anchor="middle" font-size="13" font-family="sans-serif">Cumulative ROC (%)</text>
<line x1="70" x2="870" y1="410" y2="410" stroke="#ddd"/><line x1="70" x2="870" y1="339" y2="339" stroke="#ddd"/><line x1="70" x2="870" y1="268" y2="268" stroke="#ddd"/><line x1="70" x2="870" y1="197" y2="197" stroke="#ddd"/><line x1="70" x2="870" y1="126" y2="126" stroke="#ddd"/><line x1="70" x2="870" y1="55" y2="55" stroke="#ddd"/>
<line x1="70" x2="870" y1="410" y2="410" stroke="#333"/><line x1="70" x2="70" y1="55" y2="410" stroke="#333"/>
<polyline fill="none" stroke="#1f77b4" stroke-width="2.5" points="70,150 184,238 299,285 413,277 527,284 641,357 756,381 870,386"/>
<polyline fill="none" stroke="#d62728" stroke-width="2.5" points="70,80 184,82 299,163 413,224 527,323 641,337 756,274 870,293"/>
<text x="70" y="438" text-anchor="middle" font-size="10" font-family="sans-serif">Oct-25</text><text x="184" y="438" text-anchor="middle" font-size="10" font-family="sans-serif">Nov-25</text><text x="299" y="438" text-anchor="middle" font-size="10" font-family="sans-serif">Dec-25</text><text x="413" y="438" text-anchor="middle" font-size="10" font-family="sans-serif">Jan-26</text><text x="527" y="438" text-anchor="middle" font-size="10" font-family="sans-serif">Feb-26</text><text x="641" y="438" text-anchor="middle" font-size="10" font-family="sans-serif">Mar-26</text><text x="756" y="438" text-anchor="middle" font-size="10" font-family="sans-serif">Apr-26</text><text x="870" y="438" text-anchor="middle" font-size="10" font-family="sans-serif">May-26</text>
<line x1="90" x2="112" y1="44" y2="44" stroke="#1f77b4" stroke-width="3"/><text x="118" y="48" font-size="11" font-family="sans-serif">NIFTY</text><line x1="180" x2="202" y1="44" y2="44" stroke="#d62728" stroke-width="3"/><text x="208" y="48" font-size="11" font-family="sans-serif">SENSEX</text>
</svg>